<mxfile host="Electron" modified="2023-11-28T18:14:18.679Z" agent="Mozilla/5.0 (Macintosh; Intel Mac OS X 10_15_7) AppleWebKit/537.36 (KHTML, like Gecko) draw.io/22.1.2 Chrome/114.0.5735.289 Electron/25.9.4 Safari/537.36" etag="2gWTRoOlGL1dgGGY8Qaw" version="22.1.2" type="device">
  <diagram id="htTk4eG_E8sKRTyZ_3JZ" name="wrappers">
    <mxGraphModel dx="2481" dy="539" grid="1" gridSize="10" guides="1" tooltips="1" connect="1" arrows="1" fold="1" page="0" pageScale="1" pageWidth="850" pageHeight="1100" math="0" shadow="0">
      <root>
        <mxCell id="0" />
        <mxCell id="1" style="" parent="0" />
        <mxCell id="FHIeuE9W20rfrfqQIqbK-111" value="" style="rounded=0;whiteSpace=wrap;html=1;strokeColor=none;" parent="1" vertex="1">
          <mxGeometry x="40" y="1920" width="1120" height="240" as="geometry" />
        </mxCell>
        <mxCell id="FHIeuE9W20rfrfqQIqbK-109" value="" style="rounded=0;whiteSpace=wrap;html=1;strokeColor=none;" parent="1" vertex="1">
          <mxGeometry x="40" y="2200" width="1120" height="240" as="geometry" />
        </mxCell>
        <mxCell id="FHIeuE9W20rfrfqQIqbK-83" value="" style="rounded=0;whiteSpace=wrap;html=1;strokeColor=none;" parent="1" vertex="1">
          <mxGeometry x="900" y="1060" width="160" height="110" as="geometry" />
        </mxCell>
        <mxCell id="FHIeuE9W20rfrfqQIqbK-82" value="" style="rounded=0;whiteSpace=wrap;html=1;strokeColor=none;" parent="1" vertex="1">
          <mxGeometry x="900" y="1230" width="160" height="110" as="geometry" />
        </mxCell>
        <mxCell id="FHIeuE9W20rfrfqQIqbK-79" value="" style="rounded=0;whiteSpace=wrap;html=1;strokeColor=none;" parent="1" vertex="1">
          <mxGeometry x="-200" y="1120" width="840" height="90" as="geometry" />
        </mxCell>
        <mxCell id="FHIeuE9W20rfrfqQIqbK-78" value="" style="rounded=0;whiteSpace=wrap;html=1;strokeColor=none;" parent="1" vertex="1">
          <mxGeometry x="-200" y="1240" width="840" height="90" as="geometry" />
        </mxCell>
        <mxCell id="FHIeuE9W20rfrfqQIqbK-77" value="" style="rounded=0;whiteSpace=wrap;html=1;strokeColor=none;" parent="1" vertex="1">
          <mxGeometry x="-200" y="1360" width="840" height="90" as="geometry" />
        </mxCell>
        <mxCell id="FHIeuE9W20rfrfqQIqbK-76" value="" style="rounded=0;whiteSpace=wrap;html=1;strokeColor=none;" parent="1" vertex="1">
          <mxGeometry x="-200" y="1480" width="840" height="90" as="geometry" />
        </mxCell>
        <mxCell id="FHIeuE9W20rfrfqQIqbK-75" value="" style="rounded=0;whiteSpace=wrap;html=1;strokeColor=none;" parent="1" vertex="1">
          <mxGeometry x="-200" y="1600" width="840" height="90" as="geometry" />
        </mxCell>
        <mxCell id="mw_Jj1TRxBOdgNDR-pG_-5" value="&lt;font style=&quot;font-size: 16px;&quot;&gt;Routing&lt;/font&gt;" style="rounded=0;whiteSpace=wrap;html=1;fillColor=#99CCFF;" parent="1" vertex="1">
          <mxGeometry x="-80" y="1400" width="120" height="50" as="geometry" />
        </mxCell>
        <mxCell id="mw_Jj1TRxBOdgNDR-pG_-37" value="&lt;span style=&quot;font-size: 16px;&quot;&gt;Message&lt;/span&gt;" style="rounded=0;whiteSpace=wrap;html=1;fillColor=#00CC00;" parent="1" vertex="1">
          <mxGeometry x="920" y="1120" width="120" height="30" as="geometry" />
        </mxCell>
        <mxCell id="mw_Jj1TRxBOdgNDR-pG_-49" value="&lt;font style=&quot;font-size: 16px;&quot;&gt;Routing&lt;/font&gt;" style="rounded=0;whiteSpace=wrap;html=1;fillColor=#FFCCCC;" parent="1" vertex="1">
          <mxGeometry x="-200" y="1620" width="120" height="70" as="geometry" />
        </mxCell>
        <mxCell id="mw_Jj1TRxBOdgNDR-pG_-57" value="&lt;font style=&quot;font-size: 16px;&quot;&gt;Data&lt;/font&gt;" style="rounded=0;whiteSpace=wrap;html=1;fillColor=#FFFFFF;labelBorderColor=none;dashed=1;gradientColor=#CCFFCC;gradientDirection=radial;" parent="1" vertex="1">
          <mxGeometry x="160" y="1180" width="120" height="30" as="geometry" />
        </mxCell>
        <mxCell id="FHIeuE9W20rfrfqQIqbK-1" value="&lt;font style=&quot;font-size: 16px;&quot;&gt;Command&lt;/font&gt;" style="rounded=0;whiteSpace=wrap;html=1;fillColor=#CCFFCC;" parent="1" vertex="1">
          <mxGeometry x="40" y="1180" width="120" height="30" as="geometry" />
        </mxCell>
        <mxCell id="FHIeuE9W20rfrfqQIqbK-3" value="&lt;font style=&quot;font-size: 16px;&quot;&gt;Data&lt;/font&gt;" style="rounded=0;whiteSpace=wrap;html=1;fillColor=#FFFFFF;labelBorderColor=none;dashed=1;gradientColor=#CCFFCC;gradientDirection=radial;" parent="1" vertex="1">
          <mxGeometry x="160" y="1300" width="120" height="30" as="geometry" />
        </mxCell>
        <mxCell id="FHIeuE9W20rfrfqQIqbK-4" value="&lt;font style=&quot;font-size: 16px;&quot;&gt;Command&lt;/font&gt;" style="rounded=0;whiteSpace=wrap;html=1;fillColor=#CCFFCC;" parent="1" vertex="1">
          <mxGeometry x="40" y="1300" width="120" height="30" as="geometry" />
        </mxCell>
        <mxCell id="FHIeuE9W20rfrfqQIqbK-5" value="&lt;font style=&quot;font-size: 16px;&quot;&gt;Integrity&lt;/font&gt;" style="rounded=0;whiteSpace=wrap;html=1;fillColor=#FFFFFF;labelBorderColor=none;dashed=1;gradientColor=#CCFFCC;gradientDirection=radial;" parent="1" vertex="1">
          <mxGeometry x="280" y="1300" width="120" height="30" as="geometry" />
        </mxCell>
        <mxCell id="FHIeuE9W20rfrfqQIqbK-7" value="&lt;font style=&quot;font-size: 16px;&quot;&gt;Integrity&lt;/font&gt;" style="rounded=0;whiteSpace=wrap;html=1;fillColor=#99CCFF;" parent="1" vertex="1">
          <mxGeometry x="400" y="1520" width="120" height="50" as="geometry" />
        </mxCell>
        <mxCell id="FHIeuE9W20rfrfqQIqbK-20" value="&lt;font style=&quot;font-size: 14px;&quot;&gt;Message&lt;/font&gt;" style="rounded=0;whiteSpace=wrap;html=1;fillColor=#00CC00;" parent="1" vertex="1">
          <mxGeometry x="40" y="1160" width="240" height="20" as="geometry" />
        </mxCell>
        <mxCell id="FHIeuE9W20rfrfqQIqbK-21" value="&lt;font style=&quot;font-size: 14px;&quot;&gt;Message&lt;/font&gt;" style="rounded=0;whiteSpace=wrap;html=1;fillColor=#00CC00;" parent="1" vertex="1">
          <mxGeometry x="40" y="1280" width="360" height="20" as="geometry" />
        </mxCell>
        <mxCell id="FHIeuE9W20rfrfqQIqbK-22" value="&lt;font style=&quot;font-size: 16px;&quot;&gt;Protocol A&lt;/font&gt;" style="rounded=0;whiteSpace=wrap;html=1;fillColor=#007FFF;verticalAlign=top;" parent="1" vertex="1">
          <mxGeometry x="910" y="1260" width="140" height="70" as="geometry" />
        </mxCell>
        <mxCell id="FHIeuE9W20rfrfqQIqbK-23" value="&lt;font style=&quot;font-size: 14px;&quot;&gt;Protocol A&lt;/font&gt;" style="rounded=0;whiteSpace=wrap;html=1;fillColor=#007FFF;" parent="1" vertex="1">
          <mxGeometry x="-80" y="1380" width="480" height="20" as="geometry" />
        </mxCell>
        <mxCell id="FHIeuE9W20rfrfqQIqbK-27" value="&lt;font style=&quot;font-size: 16px;&quot;&gt;Protocol B&lt;/font&gt;" style="rounded=0;whiteSpace=wrap;html=1;fillColor=#FF3333;verticalAlign=top;" parent="1" vertex="1">
          <mxGeometry x="900" y="1380" width="160" height="110" as="geometry" />
        </mxCell>
        <mxCell id="FHIeuE9W20rfrfqQIqbK-28" value="&lt;font style=&quot;font-size: 14px;&quot;&gt;Protocol B&lt;/font&gt;" style="rounded=0;whiteSpace=wrap;html=1;fillColor=#FF3333;" parent="1" vertex="1">
          <mxGeometry x="-200" y="1600" width="720" height="20" as="geometry" />
        </mxCell>
        <mxCell id="FHIeuE9W20rfrfqQIqbK-36" value="&lt;font style=&quot;font-size: 16px;&quot;&gt;Data&lt;/font&gt;" style="rounded=0;whiteSpace=wrap;html=1;fillColor=#FFFFFF;labelBorderColor=none;dashed=1;gradientColor=#CCFFCC;gradientDirection=radial;" parent="1" vertex="1">
          <mxGeometry x="160" y="1420" width="120" height="30" as="geometry" />
        </mxCell>
        <mxCell id="FHIeuE9W20rfrfqQIqbK-37" value="&lt;font style=&quot;font-size: 16px;&quot;&gt;Command&lt;/font&gt;" style="rounded=0;whiteSpace=wrap;html=1;fillColor=#CCFFCC;" parent="1" vertex="1">
          <mxGeometry x="40" y="1420" width="120" height="30" as="geometry" />
        </mxCell>
        <mxCell id="FHIeuE9W20rfrfqQIqbK-38" value="&lt;font style=&quot;font-size: 16px;&quot;&gt;Integrity&lt;/font&gt;" style="rounded=0;whiteSpace=wrap;html=1;fillColor=#FFFFFF;labelBorderColor=none;dashed=1;gradientColor=#CCFFCC;gradientDirection=radial;" parent="1" vertex="1">
          <mxGeometry x="280" y="1420" width="120" height="30" as="geometry" />
        </mxCell>
        <mxCell id="FHIeuE9W20rfrfqQIqbK-39" value="&lt;font style=&quot;font-size: 14px;&quot;&gt;Message&lt;/font&gt;" style="rounded=0;whiteSpace=wrap;html=1;fillColor=#00CC00;" parent="1" vertex="1">
          <mxGeometry x="40" y="1400" width="360" height="20" as="geometry" />
        </mxCell>
        <mxCell id="FHIeuE9W20rfrfqQIqbK-40" value="&lt;font style=&quot;font-size: 16px;&quot;&gt;Routing&lt;/font&gt;" style="rounded=0;whiteSpace=wrap;html=1;fillColor=#99CCFF;" parent="1" vertex="1">
          <mxGeometry x="-80" y="1520" width="120" height="50" as="geometry" />
        </mxCell>
        <mxCell id="FHIeuE9W20rfrfqQIqbK-41" value="&lt;font style=&quot;font-size: 14px;&quot;&gt;Protocol A&lt;/font&gt;" style="rounded=0;whiteSpace=wrap;html=1;fillColor=#007FFF;" parent="1" vertex="1">
          <mxGeometry x="-80" y="1500" width="600" height="20" as="geometry" />
        </mxCell>
        <mxCell id="FHIeuE9W20rfrfqQIqbK-42" value="&lt;font style=&quot;font-size: 16px;&quot;&gt;Data&lt;/font&gt;" style="rounded=0;whiteSpace=wrap;html=1;fillColor=#FFFFFF;labelBorderColor=none;dashed=1;gradientColor=#CCFFCC;gradientDirection=radial;" parent="1" vertex="1">
          <mxGeometry x="160" y="1540" width="120" height="30" as="geometry" />
        </mxCell>
        <mxCell id="FHIeuE9W20rfrfqQIqbK-43" value="&lt;font style=&quot;font-size: 16px;&quot;&gt;Command&lt;/font&gt;" style="rounded=0;whiteSpace=wrap;html=1;fillColor=#CCFFCC;" parent="1" vertex="1">
          <mxGeometry x="40" y="1540" width="120" height="30" as="geometry" />
        </mxCell>
        <mxCell id="FHIeuE9W20rfrfqQIqbK-44" value="&lt;font style=&quot;font-size: 16px;&quot;&gt;Integrity&lt;/font&gt;" style="rounded=0;whiteSpace=wrap;html=1;fillColor=#FFFFFF;labelBorderColor=none;dashed=1;gradientColor=#CCFFCC;gradientDirection=radial;" parent="1" vertex="1">
          <mxGeometry x="280" y="1540" width="120" height="30" as="geometry" />
        </mxCell>
        <mxCell id="FHIeuE9W20rfrfqQIqbK-45" value="&lt;font style=&quot;font-size: 14px;&quot;&gt;Message&lt;/font&gt;" style="rounded=0;whiteSpace=wrap;html=1;fillColor=#00CC00;" parent="1" vertex="1">
          <mxGeometry x="40" y="1520" width="360" height="20" as="geometry" />
        </mxCell>
        <mxCell id="FHIeuE9W20rfrfqQIqbK-54" value="&lt;font style=&quot;font-size: 16px;&quot;&gt;Integrity&lt;/font&gt;" style="rounded=0;whiteSpace=wrap;html=1;fillColor=#99CCFF;" parent="1" vertex="1">
          <mxGeometry x="400" y="1640" width="120" height="50" as="geometry" />
        </mxCell>
        <mxCell id="FHIeuE9W20rfrfqQIqbK-55" value="&lt;font style=&quot;font-size: 16px;&quot;&gt;Routing&lt;/font&gt;" style="rounded=0;whiteSpace=wrap;html=1;fillColor=#99CCFF;" parent="1" vertex="1">
          <mxGeometry x="-80" y="1640" width="120" height="50" as="geometry" />
        </mxCell>
        <mxCell id="FHIeuE9W20rfrfqQIqbK-56" value="&lt;font style=&quot;font-size: 14px;&quot;&gt;Protocol A&lt;/font&gt;" style="rounded=0;whiteSpace=wrap;html=1;fillColor=#007FFF;" parent="1" vertex="1">
          <mxGeometry x="-80" y="1620" width="600" height="20" as="geometry" />
        </mxCell>
        <mxCell id="FHIeuE9W20rfrfqQIqbK-57" value="&lt;font style=&quot;font-size: 16px;&quot;&gt;Data&lt;/font&gt;" style="rounded=0;whiteSpace=wrap;html=1;fillColor=#FFFFFF;labelBorderColor=none;dashed=1;gradientColor=#CCFFCC;gradientDirection=radial;" parent="1" vertex="1">
          <mxGeometry x="160" y="1660" width="120" height="30" as="geometry" />
        </mxCell>
        <mxCell id="FHIeuE9W20rfrfqQIqbK-58" value="&lt;font style=&quot;font-size: 16px;&quot;&gt;Command&lt;/font&gt;" style="rounded=0;whiteSpace=wrap;html=1;fillColor=#CCFFCC;" parent="1" vertex="1">
          <mxGeometry x="40" y="1660" width="120" height="30" as="geometry" />
        </mxCell>
        <mxCell id="FHIeuE9W20rfrfqQIqbK-59" value="&lt;font style=&quot;font-size: 16px;&quot;&gt;Integrity&lt;/font&gt;" style="rounded=0;whiteSpace=wrap;html=1;fillColor=#FFFFFF;labelBorderColor=none;dashed=1;gradientColor=#CCFFCC;gradientDirection=radial;" parent="1" vertex="1">
          <mxGeometry x="280" y="1660" width="120" height="30" as="geometry" />
        </mxCell>
        <mxCell id="FHIeuE9W20rfrfqQIqbK-60" value="&lt;font style=&quot;font-size: 14px;&quot;&gt;Message&lt;/font&gt;" style="rounded=0;whiteSpace=wrap;html=1;fillColor=#00CC00;" parent="1" vertex="1">
          <mxGeometry x="40" y="1640" width="360" height="20" as="geometry" />
        </mxCell>
        <mxCell id="FHIeuE9W20rfrfqQIqbK-61" value="&lt;font style=&quot;font-size: 16px;&quot;&gt;Routing&lt;/font&gt;" style="rounded=0;whiteSpace=wrap;html=1;fillColor=#FFCCCC;" parent="1" vertex="1">
          <mxGeometry x="-200" y="1740" width="120" height="70" as="geometry" />
        </mxCell>
        <mxCell id="FHIeuE9W20rfrfqQIqbK-62" value="&lt;font style=&quot;font-size: 14px;&quot;&gt;Protocol B&lt;/font&gt;" style="rounded=0;whiteSpace=wrap;html=1;fillColor=#FF3333;" parent="1" vertex="1">
          <mxGeometry x="-200" y="1720" width="840" height="20" as="geometry" />
        </mxCell>
        <mxCell id="FHIeuE9W20rfrfqQIqbK-63" value="&lt;font style=&quot;font-size: 16px;&quot;&gt;Integrity&lt;/font&gt;" style="rounded=0;whiteSpace=wrap;html=1;fillColor=#FFCCCC;" parent="1" vertex="1">
          <mxGeometry x="520" y="1740" width="120" height="70" as="geometry" />
        </mxCell>
        <mxCell id="FHIeuE9W20rfrfqQIqbK-64" value="&lt;font style=&quot;font-size: 16px;&quot;&gt;Integrity&lt;/font&gt;" style="rounded=0;whiteSpace=wrap;html=1;fillColor=#99CCFF;" parent="1" vertex="1">
          <mxGeometry x="400" y="1760" width="120" height="50" as="geometry" />
        </mxCell>
        <mxCell id="FHIeuE9W20rfrfqQIqbK-65" value="&lt;font style=&quot;font-size: 16px;&quot;&gt;Routing&lt;/font&gt;" style="rounded=0;whiteSpace=wrap;html=1;fillColor=#99CCFF;" parent="1" vertex="1">
          <mxGeometry x="-80" y="1760" width="120" height="50" as="geometry" />
        </mxCell>
        <mxCell id="FHIeuE9W20rfrfqQIqbK-66" value="&lt;font style=&quot;font-size: 14px;&quot;&gt;Protocol A&lt;/font&gt;" style="rounded=0;whiteSpace=wrap;html=1;fillColor=#007FFF;" parent="1" vertex="1">
          <mxGeometry x="-80" y="1740" width="600" height="20" as="geometry" />
        </mxCell>
        <mxCell id="FHIeuE9W20rfrfqQIqbK-67" value="&lt;font style=&quot;font-size: 16px;&quot;&gt;Data&lt;/font&gt;" style="rounded=0;whiteSpace=wrap;html=1;fillColor=#FFFFFF;labelBorderColor=none;dashed=1;gradientColor=#CCFFCC;gradientDirection=radial;" parent="1" vertex="1">
          <mxGeometry x="160" y="1780" width="120" height="30" as="geometry" />
        </mxCell>
        <mxCell id="FHIeuE9W20rfrfqQIqbK-68" value="&lt;font style=&quot;font-size: 16px;&quot;&gt;Command&lt;/font&gt;" style="rounded=0;whiteSpace=wrap;html=1;fillColor=#CCFFCC;" parent="1" vertex="1">
          <mxGeometry x="40" y="1780" width="120" height="30" as="geometry" />
        </mxCell>
        <mxCell id="FHIeuE9W20rfrfqQIqbK-69" value="&lt;font style=&quot;font-size: 16px;&quot;&gt;Integrity&lt;/font&gt;" style="rounded=0;whiteSpace=wrap;html=1;fillColor=#FFFFFF;labelBorderColor=none;dashed=1;gradientColor=#CCFFCC;gradientDirection=radial;" parent="1" vertex="1">
          <mxGeometry x="280" y="1780" width="120" height="30" as="geometry" />
        </mxCell>
        <mxCell id="FHIeuE9W20rfrfqQIqbK-70" value="&lt;font style=&quot;font-size: 14px;&quot;&gt;Message&lt;/font&gt;" style="rounded=0;whiteSpace=wrap;html=1;fillColor=#00CC00;" parent="1" vertex="1">
          <mxGeometry x="40" y="1760" width="360" height="20" as="geometry" />
        </mxCell>
        <mxCell id="FHIeuE9W20rfrfqQIqbK-72" value="&lt;span style=&quot;font-size: 16px;&quot;&gt;Message&lt;/span&gt;" style="rounded=0;whiteSpace=wrap;html=1;fillColor=#00CC00;" parent="1" vertex="1">
          <mxGeometry x="920" y="1290" width="120" height="30" as="geometry" />
        </mxCell>
        <mxCell id="FHIeuE9W20rfrfqQIqbK-80" value="&lt;font style=&quot;font-size: 16px;&quot;&gt;Protocol A&lt;/font&gt;" style="rounded=0;whiteSpace=wrap;html=1;fillColor=#007FFF;verticalAlign=top;" parent="1" vertex="1">
          <mxGeometry x="910" y="1410" width="140" height="70" as="geometry" />
        </mxCell>
        <mxCell id="FHIeuE9W20rfrfqQIqbK-81" value="&lt;span style=&quot;font-size: 16px;&quot;&gt;Message&lt;/span&gt;" style="rounded=0;whiteSpace=wrap;html=1;fillColor=#00CC00;" parent="1" vertex="1">
          <mxGeometry x="920" y="1440" width="120" height="30" as="geometry" />
        </mxCell>
        <mxCell id="FHIeuE9W20rfrfqQIqbK-84" value="" style="rounded=0;whiteSpace=wrap;html=1;strokeColor=none;" parent="1" vertex="1">
          <mxGeometry x="-200" y="1000" width="840" height="90" as="geometry" />
        </mxCell>
        <mxCell id="FHIeuE9W20rfrfqQIqbK-86" value="&lt;font style=&quot;font-size: 16px;&quot;&gt;Command&lt;/font&gt;" style="rounded=0;whiteSpace=wrap;html=1;fillColor=#CCFFCC;" parent="1" vertex="1">
          <mxGeometry x="40" y="1060" width="120" height="30" as="geometry" />
        </mxCell>
        <mxCell id="FHIeuE9W20rfrfqQIqbK-87" value="&lt;font style=&quot;font-size: 14px;&quot;&gt;Message&lt;/font&gt;" style="rounded=0;whiteSpace=wrap;html=1;fillColor=#00CC00;" parent="1" vertex="1">
          <mxGeometry x="40" y="1040" width="120" height="20" as="geometry" />
        </mxCell>
        <mxCell id="FHIeuE9W20rfrfqQIqbK-100" style="edgeStyle=orthogonalEdgeStyle;rounded=0;orthogonalLoop=1;jettySize=auto;html=1;entryX=0;entryY=0.5;entryDx=0;entryDy=0;strokeWidth=3;" parent="1" source="FHIeuE9W20rfrfqQIqbK-88" target="FHIeuE9W20rfrfqQIqbK-91" edge="1">
          <mxGeometry relative="1" as="geometry" />
        </mxCell>
        <mxCell id="FHIeuE9W20rfrfqQIqbK-88" value="&lt;font style=&quot;font-size: 16px;&quot;&gt;Source&lt;/font&gt;" style="ellipse;whiteSpace=wrap;html=1;fillColor=#CCFFCC;" parent="1" vertex="1">
          <mxGeometry x="440" y="1920" width="120" height="80" as="geometry" />
        </mxCell>
        <mxCell id="FHIeuE9W20rfrfqQIqbK-101" style="edgeStyle=orthogonalEdgeStyle;rounded=0;orthogonalLoop=1;jettySize=auto;html=1;entryX=0;entryY=0.5;entryDx=0;entryDy=0;strokeWidth=3;" parent="1" source="FHIeuE9W20rfrfqQIqbK-89" target="FHIeuE9W20rfrfqQIqbK-92" edge="1">
          <mxGeometry relative="1" as="geometry" />
        </mxCell>
        <mxCell id="FHIeuE9W20rfrfqQIqbK-89" value="&lt;font style=&quot;font-size: 16px;&quot;&gt;Source&lt;/font&gt;" style="ellipse;whiteSpace=wrap;html=1;fillColor=#99CCFF;" parent="1" vertex="1">
          <mxGeometry x="440" y="2280" width="120" height="80" as="geometry" />
        </mxCell>
        <mxCell id="FHIeuE9W20rfrfqQIqbK-106" style="edgeStyle=orthogonalEdgeStyle;rounded=0;orthogonalLoop=1;jettySize=auto;html=1;entryX=0;entryY=0.5;entryDx=0;entryDy=0;strokeWidth=3;" parent="1" source="FHIeuE9W20rfrfqQIqbK-90" target="FHIeuE9W20rfrfqQIqbK-93" edge="1">
          <mxGeometry relative="1" as="geometry" />
        </mxCell>
        <mxCell id="FHIeuE9W20rfrfqQIqbK-90" value="&lt;font style=&quot;font-size: 16px;&quot;&gt;Source&lt;/font&gt;" style="ellipse;whiteSpace=wrap;html=1;fillColor=#FFCCCC;" parent="1" vertex="1">
          <mxGeometry x="440" y="2640" width="120" height="80" as="geometry" />
        </mxCell>
        <mxCell id="FHIeuE9W20rfrfqQIqbK-91" value="&lt;font style=&quot;font-size: 16px;&quot;&gt;Destination&lt;/font&gt;" style="ellipse;whiteSpace=wrap;html=1;fillColor=#CCFFCC;" parent="1" vertex="1">
          <mxGeometry x="640" y="1920" width="120" height="80" as="geometry" />
        </mxCell>
        <mxCell id="FHIeuE9W20rfrfqQIqbK-102" style="rounded=0;orthogonalLoop=1;jettySize=auto;html=1;entryX=0;entryY=0.5;entryDx=0;entryDy=0;strokeWidth=3;exitX=1;exitY=0;exitDx=0;exitDy=0;" parent="1" source="FHIeuE9W20rfrfqQIqbK-92" target="FHIeuE9W20rfrfqQIqbK-94" edge="1">
          <mxGeometry relative="1" as="geometry" />
        </mxCell>
        <mxCell id="FHIeuE9W20rfrfqQIqbK-92" value="&lt;font style=&quot;font-size: 16px;&quot;&gt;Destination&lt;/font&gt;" style="ellipse;whiteSpace=wrap;html=1;fillColor=#99CCFF;" parent="1" vertex="1">
          <mxGeometry x="640" y="2280" width="120" height="80" as="geometry" />
        </mxCell>
        <mxCell id="FHIeuE9W20rfrfqQIqbK-107" style="rounded=0;orthogonalLoop=1;jettySize=auto;html=1;entryX=0;entryY=1;entryDx=0;entryDy=0;strokeWidth=3;exitX=1;exitY=0.5;exitDx=0;exitDy=0;" parent="1" source="FHIeuE9W20rfrfqQIqbK-93" target="FHIeuE9W20rfrfqQIqbK-96" edge="1">
          <mxGeometry relative="1" as="geometry" />
        </mxCell>
        <mxCell id="FHIeuE9W20rfrfqQIqbK-93" value="&lt;font style=&quot;font-size: 16px;&quot;&gt;Destination&lt;/font&gt;" style="ellipse;whiteSpace=wrap;html=1;fillColor=#FFCCCC;" parent="1" vertex="1">
          <mxGeometry x="640" y="2640" width="120" height="80" as="geometry" />
        </mxCell>
        <mxCell id="FHIeuE9W20rfrfqQIqbK-94" value="&lt;font style=&quot;font-size: 16px;&quot;&gt;Destination&lt;/font&gt;" style="ellipse;whiteSpace=wrap;html=1;fillColor=#CCFFCC;" parent="1" vertex="1">
          <mxGeometry x="840" y="2200" width="120" height="80" as="geometry" />
        </mxCell>
        <mxCell id="FHIeuE9W20rfrfqQIqbK-103" style="rounded=0;orthogonalLoop=1;jettySize=auto;html=1;entryX=0;entryY=0;entryDx=0;entryDy=0;strokeWidth=3;exitX=1;exitY=0.5;exitDx=0;exitDy=0;" parent="1" source="FHIeuE9W20rfrfqQIqbK-95" target="FHIeuE9W20rfrfqQIqbK-89" edge="1">
          <mxGeometry relative="1" as="geometry" />
        </mxCell>
        <mxCell id="qfINrH1YFND_uReyzQlZ-3" style="edgeStyle=orthogonalEdgeStyle;rounded=0;orthogonalLoop=1;jettySize=auto;html=1;entryX=0;entryY=0.5;entryDx=0;entryDy=0;dashed=1;strokeColor=#FF6666;strokeWidth=3;" edge="1" parent="1" source="FHIeuE9W20rfrfqQIqbK-95" target="FHIeuE9W20rfrfqQIqbK-94">
          <mxGeometry relative="1" as="geometry" />
        </mxCell>
        <mxCell id="FHIeuE9W20rfrfqQIqbK-95" value="&lt;font style=&quot;font-size: 16px;&quot;&gt;Source&lt;/font&gt;" style="ellipse;whiteSpace=wrap;html=1;fillColor=#CCFFCC;" parent="1" vertex="1">
          <mxGeometry x="240" y="2200" width="120" height="80" as="geometry" />
        </mxCell>
        <mxCell id="FHIeuE9W20rfrfqQIqbK-108" style="rounded=0;orthogonalLoop=1;jettySize=auto;html=1;entryX=0;entryY=0.5;entryDx=0;entryDy=0;strokeWidth=3;exitX=1;exitY=0;exitDx=0;exitDy=0;" parent="1" source="FHIeuE9W20rfrfqQIqbK-96" target="FHIeuE9W20rfrfqQIqbK-97" edge="1">
          <mxGeometry relative="1" as="geometry" />
        </mxCell>
        <mxCell id="FHIeuE9W20rfrfqQIqbK-96" value="&lt;font style=&quot;font-size: 16px;&quot;&gt;Destination&lt;/font&gt;" style="ellipse;whiteSpace=wrap;html=1;fillColor=#99CCFF;" parent="1" vertex="1">
          <mxGeometry x="840" y="2560" width="120" height="80" as="geometry" />
        </mxCell>
        <mxCell id="FHIeuE9W20rfrfqQIqbK-97" value="&lt;font style=&quot;font-size: 16px;&quot;&gt;Destination&lt;/font&gt;" style="ellipse;whiteSpace=wrap;html=1;fillColor=#CCFFCC;" parent="1" vertex="1">
          <mxGeometry x="1040" y="2480" width="120" height="80" as="geometry" />
        </mxCell>
        <mxCell id="FHIeuE9W20rfrfqQIqbK-105" style="rounded=0;orthogonalLoop=1;jettySize=auto;html=1;entryX=0;entryY=0.5;entryDx=0;entryDy=0;strokeWidth=3;" parent="1" source="FHIeuE9W20rfrfqQIqbK-98" target="FHIeuE9W20rfrfqQIqbK-90" edge="1">
          <mxGeometry relative="1" as="geometry" />
        </mxCell>
        <mxCell id="qfINrH1YFND_uReyzQlZ-2" style="edgeStyle=orthogonalEdgeStyle;rounded=0;orthogonalLoop=1;jettySize=auto;html=1;entryX=0;entryY=0.5;entryDx=0;entryDy=0;dashed=1;strokeColor=#FF6666;strokeWidth=3;" edge="1" parent="1" source="FHIeuE9W20rfrfqQIqbK-98" target="FHIeuE9W20rfrfqQIqbK-96">
          <mxGeometry relative="1" as="geometry" />
        </mxCell>
        <mxCell id="FHIeuE9W20rfrfqQIqbK-98" value="&lt;font style=&quot;font-size: 16px;&quot;&gt;Source&lt;/font&gt;" style="ellipse;whiteSpace=wrap;html=1;fillColor=#99CCFF;" parent="1" vertex="1">
          <mxGeometry x="240" y="2560" width="120" height="80" as="geometry" />
        </mxCell>
        <mxCell id="FHIeuE9W20rfrfqQIqbK-104" style="rounded=0;orthogonalLoop=1;jettySize=auto;html=1;entryX=0;entryY=0;entryDx=0;entryDy=0;strokeWidth=3;exitX=1;exitY=0.5;exitDx=0;exitDy=0;" parent="1" source="FHIeuE9W20rfrfqQIqbK-99" target="FHIeuE9W20rfrfqQIqbK-98" edge="1">
          <mxGeometry relative="1" as="geometry" />
        </mxCell>
        <mxCell id="qfINrH1YFND_uReyzQlZ-1" style="edgeStyle=orthogonalEdgeStyle;rounded=0;orthogonalLoop=1;jettySize=auto;html=1;entryX=0;entryY=0.5;entryDx=0;entryDy=0;dashed=1;strokeColor=#FF6666;strokeWidth=3;" edge="1" parent="1" source="FHIeuE9W20rfrfqQIqbK-99" target="FHIeuE9W20rfrfqQIqbK-97">
          <mxGeometry relative="1" as="geometry" />
        </mxCell>
        <mxCell id="FHIeuE9W20rfrfqQIqbK-99" value="&lt;font style=&quot;font-size: 16px;&quot;&gt;Source&lt;/font&gt;" style="ellipse;whiteSpace=wrap;html=1;fillColor=#CCFFCC;" parent="1" vertex="1">
          <mxGeometry x="40" y="2480" width="120" height="80" as="geometry" />
        </mxCell>
      </root>
    </mxGraphModel>
  </diagram>
</mxfile>
